{"title":"Reservoir Dogs(1992)MPEG-4(720p)[DaScubaDude]","uid":13159513,"size":992864613,"categoryP":"video","categoryS":"movies","magnet":"?xt=urn:btih:d46327b51c558a63e834e92e5c39a29e8dc30dac&amp;dn=Reservoir+Dogs%281992%29MPEG-4%28720p%29%5BDaScubaDude%5D&amp;tr=udp%3A%2F%2Ftracker.leechers-paradise.org%3A6969&amp;tr=udp%3A%2F%2Fzer0day.ch%3A1337&amp;tr=udp%3A%2F%2Fopen.demonii.com%3A1337&amp;tr=udp%3A%2F%2Ftracker.coppersurfer.tk%3A6969&amp;tr=udp%3A%2F%2Fexodus.desync.com%3A6969","seeders":0,"leechers":0,"uploader":"dascuba","files":1,"time":1452139336,"description":"After a simple jewelery heist goes terribly wrong, the surviving criminals begin to suspect that one of them is a police informant.\r\nDirector: Quentin Tarantino\r\nWriters: Quentin Tarantino, Roger Avary (background radio dialog) | 1 more credit »\r\nStars: Harvey Keitel, Tim Roth, Michael Madsen \r\n\r\nGeneral\r\nComplete name                            :Reservoir DogsReservoir_Dogs_D1_WS_Title1.mp4\r\nFormat                                   : MPEG-4\r\nFormat profile                           : Base Media\r\nCodec ID                                 : isom\r\nFile size                                : 947 MiB\r\nDuration                                 : 1h 39mn\r\nOverall bit rate                         : 1 337 Kbps\r\nMovie name                               : Reservoir_Dogs_D1_WS\r\nGenre                                    : Crime\r\nWriting application                      : Lavf54.6.100\r\n\r\nVideo\r\nID                                       : 1\r\nFormat                                   : AVC\r\nFormat/Info                              : Advanced Video Codec\r\nFormat profile                           :   \r\nFormat settings, CABAC                   : No\r\nFormat settings, ReFrames                : 6 frames\r\nCodec ID                                 : avc1\r\nCodec ID/Info                            : Advanced Video Coding\r\nDuration                                 : 1h 39mn\r\nBit rate                                 : 1 202 Kbps\r\nWidth                                    : 720 pixels\r\nHeight                                   : 404 pixels\r\nDisplay aspect ratio                     : 16:9\r\nFrame rate mode                          : Constant\r\nFrame rate                               : 29.970 fps\r\nColor space                              : YUV\r\nChroma subsampling                       : 4:2:0\r\nBit depth                                : 8 bits\r\nScan type                                : Progressive\r\nBits/(Pixel*Frame)                       : 0.138\r\nStream size                              : 851 MiB (90%)\r\n\r\nAudio\r\nID                                       : 2\r\nFormat                                   : AAC\r\nFormat/Info                              : Advanced Audio Codec\r\nFormat profile                           : LC\r\nCodec ID                                 : 40\r\nDuration                                 : 1h 39mn\r\nBit rate mode                            : Constant\r\nBit rate                                 : 128 Kbps\r\nChannel(s)                               : 2 channels\r\nChannel positions                        : Front: L R\r\nSampling rate                            : 44.1 KHz\r\nCompression mode                         : Lossy\r\nStream size                              : 90.6 MiB (10%)","torrent":{"xt":"urn:btih:d46327b51c558a63e834e92e5c39a29e8dc30dac","amp;dn":"Reservoir+Dogs%281992%29MPEG-4%28720p%29%5BDaScubaDude%5D","amp;tr":["udp%3A%2F%2Ftracker.leechers-paradise.org%3A6969","udp%3A%2F%2Fzer0day.ch%3A1337","udp%3A%2F%2Fopen.demonii.com%3A1337","udp%3A%2F%2Ftracker.coppersurfer.tk%3A6969","udp%3A%2F%2Fexodus.desync.com%3A6969"],"infoHash":"d46327b51c558a63e834e92e5c39a29e8dc30dac","infoHashBuffer":{"type":"Buffer","data":[212,99,39,181,28,85,138,99,232,52,233,46,92,57,162,158,141,195,13,172]},"announce":[],"urlList":[]}}